/* XPM */
static char * xemacs_back3_xpm[] = {
"128 128 21 1",
" 	c #BEFBAAAA9658",
".	c #BEFBAAAA8E38",
"X	c #B6DA9E798617",
"o	c #AEBA9A698617",
"O	c #C71BBAEA9E79",
"+	c #CF3CBEFBA699",
"@	c #C71BBAEAA699",
"#	c #BEFBBAEA9E79",
"$	c #BEFBA6998E38",
"%	c #9E7986176185",
"&	c #A6998A286185",
"*	c #BEFBB2CA9658",
"=	c #C71BBEFBAEBA",
"-	c #A699924879E7",
";	c #8E3871C65144",
":	c #AEBA924879E7",
">	c #9E798A286185",
",	c #CF3CC30BA699",
"<	c #BEFBB2CA9E79",
"1	c #861775D65144",
"2	c #96587DF75965",
"     .XXoO .oO+@+ #.#.XXX   X   $ X OO XX. X%&&oX XX&X&X #OX.#O@O#       XXXXoo  . OOO.X    .O##     . X . . O    @   #   XXo . ",
" XXX X X&%XXoo  O*# O#    . .XXo#O@ .o O=@O X .#OOO    XoXO##OO#        XX ==#.XX.O#OO#.  X #OX%o X..# #+@@#XX OO.X#+@@#X&X.@O# ",
"XXXXo.O  -O .-   #O  X .O OO Xo.OO XoX .# O+@# O# OO= O #OO#X&;;;;%oXX&X& X#OO##O    OO# X ..XX..  .. X . X&XoO+=#.  oXo  O##  X",
"   ###X   o:&%o  O .oXX-OO#  O##   O  o.    #O XXo     OO Xo   XXo..  XX O     O .o XXo X>XXOO=OXXO@ X&X-   O## OO#X&%oXXXXX    ",
"   ##XX O# #O .  X>%-#O.&%o OO#   O XXX Xo  O .X .XXoO .o  .O+,,,@O. O# . X      Xoo  . X X OO# Xo%XXX XX  OX.&Xo  #OO..  .X&;% ",
"& X XXO O.=+,@#XXX$.:  . ..        X oXX .     OO# X&%X X .# X&&ooXo. # .&oo    O .%XoX #+<#   O@@#XXX#O#XX&Xo  .  O+=#O++#.XX%o",
" ..XoO  o.      X   %X O+@#      XX +@  .#   OO Xo  ..O  oXX&XX XXX.X  X.X.- X&%o#O >12oOO# XXoXXo#OOO O.O  # O.# XXoOO X&X.@,@ ",
" Xo  .& X#     OO#OO OO#XXoXX&XoXXo X.X.-  X&;%X .  O.X& #O XX.@=O ooo # O.    ..OO+@@ .XXo   .  X&XO@O .O OXOXo&XX .XXX O XX   ",
"OOO#O O o%&Xo   OO=+O.&&&o.    . O#O .OO      X .#OO#  O##OO+O .O O.#.O+O -X O+@#  O++#X  .   XO#OXo- OO# #O OO#  OO#XX.O=O#   O",
".O@  .=O oo X&%o    XXo O# Xo X- O#O+OO.#  O++ %2o OO=##X   O+O.& .O XXX  X-      XXo Xo O#   . X  #:XXoXX O# OO=O#  # Xo O  &X&",
"Xo&>%-  # @OO ..    #OOO # X&%X..  XXX . XX&XX# X%X&Xo  .         Xo&o&X.@OX&Xo  XX&&&&--  X .# #O=O.X&o&X-XXo       OO#.XX&Xo  ",
"# XX.-&&X.XX  #oX&&% O &2oO*O =O.o X&o.#XXo  O##XoXo .OO#XXo  O O OOO#  -XXX  XXo OOO O# XX&X-XX OOXo O#OO   .  XX&Xo   X  O#@O=",
"o =+@#X .#. XXo    .. #O.oo## X  . # X%X& oO.#X X= #.#    X&%o   O+@=O+O >oX=  o.OO=#=@@ XoOO XX%&&XO#=O=O#OO Xo    XXXXo OO XX&",
" OO=O=@@@O#OO=#= OO@ &X OXX   o O#  #..oOO# . ## #O#X&%o O  -. OO#   XXoO@<.XX .X    XooX X=O  X.&  #X    XXo Xo O=OOX   oo O O ",
"@#    OO# XX O# XX%&&X. O# XX ooo XX O=#=O=O# O .-OOO XooX O<# XXo  XXX.O+@OXX&--   OO#X:&%o  OOOO # XXo    .OO#XXo   o  #.  X #",
"XoXX&Xo     .   #O# O=@OX- O  .#. X XO X  X&;%o$X%o O+=#. O# Xo  XXo OO -oXXX.O#.&%o OOO#O . O O OX..OXooX . &X.O .XX O  .# X ..",
"XoX  Xoo  OO#XXoO OO@ X&>2. O.OX%% O  Xoo XXo..$ :.   OO#O .XXo OO .OOO Xo&>o#,@ >2-   O#=  Xo  OO o-OO#.  . Xo-OO#  X.  ooOO=#O",
"O#OO=O#.XXo XXo.   XXXX O#X& X Xo.OO#O .%XX     O<#      XX&  #. O .o  O##O* -Xo#* :XX&XX X>%-OO#O@OXoOO Xoo  #:XXoOO o.O#. O . ",
" .#  OO#XX-XXX.X OOO OOO X- O ##@ # X&>oX OO.oXO# Xo   XX& .#OO XoXX%XX O OOO.&oX$X:XXo OOO##   XXX X.    .    :XX-  $o% O#    X",
" .XXoXXo$X%& X.%&;%XX-X . . O#  o&%&>&  #X   .. X&oX&%&XoOO@ X%&X-# X%.O# X  O X # X OO XX O@#     O##XX +@=O# :#O.X& . .X&;% OO",
"X.XXo&X-$ :OO=O#  . XooO=,@    OOO. #=@=#  .  :X>&-XX- O#=O#  .OO.X& X   O Xo = OO=#O X;1&oXXo  OO=O#   .    $X% OO O+@@#   .X&X",
";%.O#OO $OX=O=O=+,@=@@O X  X  O OO@=+O. OOO. o:#@@ O+<= .&Xo  o..O O=<# XX O OOO X .#X .#O#OXoo XXo  X .# XX&   .X .= .&&& O#X>1",
"=#. XOX. O          OOO XXoXXo XX-  XX&oo   ##  O@@= .&Xo  .   ..O++#oXo  O+@# OOOXoo##@@@#OO#.  Xoo   .     OO#X  .XX&X&X-  O@@",
"+#. XX&X.O#           OO  XO . #O.X&X O#.OO=##X  .   X&XXO XO#=  Xo    .OO &%&X&X  .-OO#.  X .# OO#.X .#  OO=OO .O .& .=+,#O.OO@",
">%X O O.  X&%oXXo  X&%o # X  X%  X%oO O.#     .OO#  OO#.:XX-XXo. Xo O=O#X&&XX&%&X-#O.X O#  XX%X&X O Xo.  XXoXX O#XX& .@O=OOXoX X",
"XoX%X  X-o  ..  .   Xo%X O#. Xo%X #@O X%X&XoOO#XX&Xo O@OoX.  O#    oo   XX.OOO#=O O X%- XXo$X-&Xo.  O .o   .  X&;&X  .X  X  #O X",
"=@+## Xo%o +@  X.oX O@# .OO# # #O=@# #O#   .     X&2oX  OO##OO#  OO &%o #+<  #OO.#  ##.&&o.#O@O=## OOOXooOO#OO XoOO= .- X>;&ooX ",
"##+@=O#O #. XXo  .  O O.#  X>&%.X.o XXo#OOX-o  OO# :XXoO+@#      XOOO..X .##O XX-  O+@O O## O O X   X  #.X&%oX O@O oOO   #O ooOO",
"o.X&% @@@ .&X #=O#OO#X&1%oX>X.#.  . XX-.   XooX&% +<O .X   XXo   .X O@#  . OO :o:XXo  O##X X&2X XX&&&o X-X ..XX%%;&-O .&  OO @  ",
"X#  Xo O Xo O##X&%o  # X12& #@,@=O# ## X  O .-XX-OO#OO#.XXo  X&&oX  .  OO#    ##   . XX&X- $ :OOO  X X X-O+@   # O=#X&o  XX. .& ",
"    .X.  O#=O# X>2%XoO@,@  OX &%o    X%1%X   -  .-o  OO Xo.  .  ..OO#   X&%&X +@  .#XXoOO.X # X OOO#  #+<#  XX.@,+#.XX-#O#OXOX .",
"X  X X#   XX&%&   oX- O+,@+O   ..    #O o.  &%XX -.XX&XXO##  O#OXX XXo X>&-XX-    XXXO#=OO OO#.    O .XX%%o $ -oo  O*O:. #O OOO.",
". O@@   XX-XX- O###O.&%o  OO  O@ Xo O+,,OXX#OOXXX:XXXoX .#X XX&X..   .XXXOX#X%o   XX.O#  OO  .#   OO XoXX-. ###X.OO### X OO XX X",
".o   X  $X%X :  OO@  X..  X&&o.  Xoo X&&&-.+++#= o2 OOX--XXo  O=O.o X%& +@ #O.o&XoOO   XX&XX .      #O@@,<#X  =##   O .%&%&Xo O ",
" X&&&&;% O OO XX.O# O=@#    O## OO#XXX  O o%X O@,= O XXoo& #=+@#  . X&oX= . #OX O#=O &;;%&X.O# XXo  O XX.#   OO# XXo #O#XooO#=OO",
"X XOOOXo.###+O &%o O .o    O #  X X o O@,=O.OO#X O@ X =@OO .o XX  X& O : XX- O#= X%o    .#O      . X&&X..  OO#     .X .=@@@O# X ",
"  O =+,@   . X . .  XX%XoXXo.      O#O XX +O. OOXooX #@=+O o.  XoXXXXO   #O OO &&&o-O+,,O#.# XXX X XX.=@#  XXo XX  .XXo& .#     ",
"O #.  O XX.# ##@ #  #O# . O## XXX #O#OOO XXXXo& X.% .     O## OO# #O .X#X X.o   O+@    O .-XX&Xo . #+<#   XXo.   .XXX XXX-    O ",
" OO X&XX ..   X%2o X .=O#O .&XX XX-   XXoXX. .oX .# X%%o OO#XXoO  X O#   X&%- O###O# XXo# XX OO@O# OO#     O .oO . O#O#+O.X&Xo  ",
"O#X>%o O+O.oXX O .   XXo   XXoOO+O.&%o XoX :#  X##=OO Xoo  XXoXX& XO #o&X +#.Xo  .X&;&o.O .X #O XoXXoX&%&X OOXo&XoOOOX- OO   XX ",
" X>XX@O XX . O=+#X OOOX&%oOO=##X .OXo-O@@O -X&&oX# O+,= oo X X X O=O# XX-O+@O .O .&X& o.o#O# XXX .X&1&X.XX- OO#X X# XX%ooOO=  o.",
"  $OX# XX. .  X&&oo  OOO.. O .oXX-O@OXoOO+ .&  .2;%o  OO#.X . #O@O=OO  OXX%& . X&X +,@ X-OO=OOXXoX#O# O +O XX O#X%o #+@#.  XX ##",
"XX#   X . XX-  OO#.   O+@#  XX% . X   oo   #+,,=#Xo-   OO# O . O#XXo  OO# .  .  OO@ O.+O     OOO.X  =##.OO Xo. $ :XX O=O#  X o.&",
"  O# &&  .X :O+@=O Xo   X&%& .  o.X OO oo  .#OO #O#:     X .O . XXo.OOO #### . O=O#  XX&%%o    O O  X .# XX # X # . XX&Xo  $X-o ",
" O.# XX-.X .        XXo  X&%XX .#X X. O#.OO#. X>1X. XXo  XX-  XXX ##  X&2X .  . X&% OO XX-X&%&Xo.OO=O#XX&X # X&  #OOO   .  #O@#=",
"Xo. O@= O  %-&&%o OOO .  ##@  .#=O#  . X-o  X #* XX#  .  #O   . O##XXo#O OO#  oX&X%o& O,+ .X&% ##XX& .OXXX.oX O#OO X  O.#  O+@#X",
" ## XX  ##O#.XX-.     oXX O.OO<# OO=O XX..  . O@,<  OO#  OO# X- O XX .O+@# X>%o O+@#  .OO#O*O..XXXo  .OO= .oO OXX%X .  . XXoXX&X",
"##XXXXo- O++# OX &%oXX&&&XX O X%oXXoXX =@#OO#XX +@#         XX-.  X X.oXX&XX$. O=OO   XX .##+@ oXO#=O# OO+O@OO   XXoX  oXX .   O",
"#   O* %o   XXo:  ..#O=O  o o. ..  .  .X     XX- XXo        $OX &X  X&o&Xo O*#:   X&%oXXo. OO=O#OO &;;%o   X   #+=OX&&o  OO#  #O",
"  OO##O .XX O#.- O@#OO=+,O.X.O+@#O .XX--    X:o:  Xoo XXo  X XXX .OO=O#   O##O.&%o#OO..O .o  X .#XXXXX-. XX-XXo.  O#OO#= .o XX- ",
" XXoX O@#XX% O@# . X&%o O O#O.o      # X&&%o ##  OO#.X>%- XX O#O# -X # O. XX OO .. O XoX o.    .   O=,<#X:o: O##   O+O.oXX- #O  ",
"X&X%X&o&&>oXX .=O# XX-. X .   .XXo  #+=# Xo-  XX  O .X$X2%XO O. X&oo . O##XX%X +O.&XX :  .oXo  X O ..O X& X. .#XX O# X&2 O X .#X",
"   XOO#   . O#XXo  #+<#   X-  .X . XooO O #:  ..     O@=#.OOO . O+@O XOO#X . X-   O OO#O #  .  .XX O    O+# &oo  .   #O O .X .  ",
"O+ #.=O=+,OX O X%XoO .o OOO..   X- O#.XXoO X +@ &;% O#O#=  XX XOOO . .  XX #+O X .= Oo o  #O#OO#X&o.# OO=O XoXX .# XX +@# XXoX O",
"oO X2&Xo OO#. #O# .  Xoo O##XOOO ..O X& #OX--     ..  XXoX>;%&oo   O .o  O#  .# Xoo#O#O  oXX&XoX:X:.   XXo$ ... XX&Xo.    Xo-.XX",
"X&X .&%- X X.& XO.# OO#XXo XooX O@# XX.## ##   O++#X   O X>o  .-  X-X .X .#  . OO#.OO=O  X XoXoX$OX.&Xo  .#+@#O  o  .o&%oX #< Xo",
" X.==+#.XX   XXoX&%o   . .O .-  .   #+<#X OO.&X&&;%- X .O#+=. .    .OO >%%XX oXoO .o  X:o:#OO XO@@#   X .#OOO oX #=O#  ..#+<# O#",
" O<#O+@O OO=O+O@O o-   O X;>o-X&-o    X  Xo&X&&;&  X&Xo.O+,=OO# &X #XX>Xo.&&%o .   .X&& # O XXX#OOO #O X-XXo   O## OOOO #  X OO ",
" # &%o OO X&X O#O@@ X X.X   .X  ..    XX O#OOO #=@O.oO# XoX O@#  XXo. #=OO.+#@O#   o>&.=@#  # XoXXX . #O  XoX #O#      XXX .  XX",
"##XX%&%o     XXo O .X    O@,@@++#X  OOO X .=O++@O.  #.#  .XX-   O#=#   #OO@##X      $OX# XX +=#XX& .# OO#OO#  XXo    OOO   X   O",
"# #+@OXooOOO . . XXo    . .O .o X&%o   XooXXo  X XXXX. OO##O   XX.O#XX&&o.# XooXX O=@@     XX   XX%2o   X&&&.. X-XX&Xo OOO .X&X.",
"  OOOO##.    OO#  O  o  OO#   X  O..    O# X-  .O  .##X&%oOO Xo# o%o#O=O . OO#XXoXXoOO#    XX- OO+O.oo      ..#O  X&%-   OO# Xo-",
"XXo   OO#  OO#     X oO.#   OOO O##XX&XO@#$ :OO# #+<#   ..X&;%-O  -X XO  -&X O  X X- XX&XXX .   #+,= o&&X =@@#  XO OX   XXo O@@ ",
" XooOO#XXo X&;%o   O .&&%o  X&X.#  XXX.. X:o: X&% O X& O@ XXO#  #+# &Xo Xoo XXXX% O  XXo   # .X X&% O#XX-  .    . #+<# XXo.  OO#",
"OO#. XXX X&&X .. OOO #OOXo&X&X%oo  XX...o $X%o  ..  XXo.  O=,@# O   O=#=*#. XX O OO# #OO .O# XXXoX..OO++<=O#  OO#   X   O X;%o  ",
" OO &&oOOOX #,@#  X>XX=+=#XX +@ &;%X :  . $.:.O+@#   ### OO XoXXo O#O X $ X O    #   OOO O . O# O=@#    oXo         .  OOO Xo-  ",
"    X o.o #.o%o    ##.X& .#XX.=   #=+<=O X =<#     X X#      .  . X%&&oo$XXXO OX&%o XX& .#  OOO XoXo  XXo .X&;%&XoOO#    O#+.Xo ",
"   O@@# . OOO..XXoO+O o  .$ :.X O@@=O# X>X#@#    X&X.      O . O#XXoO .-#O.X& O=O..     . OO XX .  XX&:o.X-&Xo.  .XXo      O .- ",
"     X.X. O=+@#  .   O#O X## X O# XoXX&XX.:        O## XXo    .  ##@ # :O+==O#.O+@#X .= .&X&Xo O =  o ### .O+=##O >%-   XX O# : ",
"    XX-XX-  XXoO X;% O# Xo  .-OO#  .XX& OOXo XXo O+@ XoXX%&% O# X  #X:o:  OOO X      XXX    O#O XXXO OOOOO@=  o.  $.-&%o  .X .  ",
"    #+<+O     .XXX .. X  #.#O   X .##O=OO oo&XoXXo   Xo O# .. XXXX .O##.Xo   X&%&&;XX & .= O.#O  oOOOXo&X-   O## O@@# .X .# O## ",
"&&%oOO#O .o OO# O=,@#   O XX.#XXX .XXo#OOOO# O#O XXoO Xo.=##X   O .- O O .    ..   . OO oo  .XX&X-X OO#OO   OO#  XXo#+O o.   XXX",
"o ..  XXX .    OO Xo    o>&-. XX.O XX.. O O.=O#OO X- #O .  XooOO## X&X% .#XXXO=@=+,OO.=O#.OO#    :.      X         ..  O .o  .XX",
"XO@ Xo  OO#  X&%&Xo.    X #< &X.   O=@#   XooX&;%  XoO+@ X O#XXoX  #O .o.   OO#  XXX .   X   OO#OX#      .XXo   X O@# OO X-  o:&",
"X-   X .#X&%&X&oo .oXoO OO<#X>oo.& . XoXX O#.XXoX   ooXXX .OOO .  OO=OOX-& . XoXXXX . XX .   XX  Xo    #O#  .XX&>%-     $ ->%o# ",
"@  O X%-   . O+@@ .o .XX ## $#X#   .  .  .OO   @##OO#.  OO# X X.X oXoOOO.  .  XX&  #. X X.o    OO ooXXo.XX O# XX #.&;;%& X.X. +,",
". Xo ##  O+OO.= .  #.# O# Xo#+<O #O  X. O#   OO#  XOO#OO# XX&X&Xo   XX +OO.# Xo O#  XOO#  .X&X.#O .-  .X X&%&  ==@O   .   #+@.&X",
".  .O+O.o  X&2oXX.O ooOO# Xo  .X XX&Xo XXoXXXX..OXo&&%o    X .=O@O=OO .   .XXXO  o.X&% OO X  ..  $X2X #.OO o&X.O# O+,,@= OXOXoX.",
" XoX    .  #O .#O OO#.   OO o&X.OO OO@OO .XXo Xo O XX.. XXX  .#O#   OO X  .&XXX. XXX.X&%X .O+OX%o#O#X .# O@@=O    X&%&X& .   O=@",
"XX%oo OO XoO+@#O .& .#    OO  ..X O=O#X .##OOO##X XO#@#    OO ooXXoX&%&X-XX O oXO#  #O -OO X&>&-. O@=#.   OO= .o    . XX ##O+@# ",
" +@ oo    .      XXo.   XXoOO=#OXoo     .X .O OOO OO.Xo O O.= X2X .  XX&% O@#+..& O@ #+<#  XX O X Xo O#XXo     . XXXX#O=##    XX",
"OO=O o&X O#     OO=##  XXoXX  . O#.   O X&o.O .o  #O &1%oXX%XX :O . +=+O. X.XO  oo .#OO# XXX#==#.O .-    .   OO#XXX ..OO# XXo   ",
"X   X%;%- X&%o     X    O X;2XX&X. XoX&&X .X   .  . #O#..#O# O+<#  .   ## Xo   XX. oo      O X&oX #O   OO#    XXX   XX  XXX .   ",
"o&XX# Ooo;&&o- XXXXoo X .O# X.OO..  .  O==#XXX XOO X +,OX&o  #O X O XX XXX ..X    O#X&%o O+OX&o..XXoX      X&%&XX . .. XX&XoX  X",
"#  O+,,OX%.+@   X  #.   .O+,@ O+@#O . ##XOO &%o.X&&o.XX&>%%Xo.X>%- XX.+OXoX.XX. #- . X%o&Xo #=@@#  ..  XXo  Xo O  #+#X  OO o- OO",
" O.# OO#$.-..# OO#O .oOO# XXoX    XXo.  .X&X @# XX .X  O@@OOX# ##  $ :X O<O X$.#O# .#+O.&X-O+@# X O@ &;&oXX *# O+O XX- OO=@OXo O",
"Xo.   X:  #.XXo OO >%-  X&&X..XX&XXO##OO#  O=@#X #=#XXo O # :X O@#X .   O #  @@@O=O# X XO..Xo     .     .. .$X%oOO##O XXoX   &%&",
"X-XXXo $O<+#. .   X:%2;%X  O #  XX.O#   X O@#  #O OOO .  .$ -Xo.   O##O X2  X O# XXo  O OX X-XXoOO# O+,=  .##O.oo X . Xo.  OOO.X",
" X- XoX$X:  OO# XX @@# . O# ooOO# :       .    OO#X&XO@= . O  X# XXoXXX O O X2o XX&o +@+O $ :  .   XXo OO#. O#OX.   . O#  .#  XO",
"@@ OO#X X OO#  XX&X @,,@O OO o&X O XXo  OO# XXo    Xo-    OO+O     .. XXXXo   .  OO#.XX O##O   X     .  OO#XXXO## OO  .# Xoo  .O",
" X-o  O+#.oXX&X&XoXo-   OO  X.o OO#  . X&%&XXX&%oX OOXo OO# OO &% +@#OO X- O=@# OO=O#  .  OO#  .XXoO .o  X&;%X X   XXo.X X.-O+@#",
"XX-XXo  . .XXoX X# #:XXoXXX OO@O#    o&&X.X&o O.. XXXX.  XXo  XX-.XX&X @+ # .o         o&%o X . Xo.   XXo  O# X-    O## XX&%o   ",
"## .O#O OO##O@O=###O   .  OO=O#X&%&Xo X #@+ X.+@#O  .##    XX&: X#XXoXo O#.  .   X&%o   Xo%X&X-X X#   . .O+,@+O      X OO# :.   ",
"  .. . O#  O . O+OO XOO  . X&X&XX. O#=@@.X *#:XXo #+#X%oX XX;;XX X .@O#X X. O#XXo  .X XOO@#XXo:#O.Xo   X-o  X .#X&%X XXoO@,<# XX",
"X:&%X XXo   XX-XX&o&&%o  .   XX O##O# OO &2 O.XoXX O X-.X&%  O#<#X X#OOO   .XXX .O+@O  XXo#O+#. X o.OO >12o   .   .  .XooOO#    ",
".#O OO &2o X ..XX   ...OO#O OXOo o.XXo  #O OO X%&%- $OX##O@=,+.-o# Xo  OO= .&X.O#   OOOXo%o ##XXoO##  #@@ . OO# O+@ XX XX&%&Xo  ",
"O+,@#X   .  O#OO=+O#=O.o     OO  X Xo.  O+O.o# X&-: #O X   - OOX&XX.-       OO       XXXO #.XXXXX.#XXoO#= # XXo    #O  XOXoo XXo",
" Xo   O=@# OO#OO# O X&oXXo OO=O# -X # X&XoX&2X#=,<  O X&o  ..O+O % XX&X&X& .=O#   XXo O# X.## O .ooX&1;&&&;;&o. XXoOO+ X @@O .O#",
"Xo.XXX oXoXXo    O  XO  &oo XXo#O  X X&XoX    O=+#XXXX  .#+O.o #+@O XXXo   .       Xo O+O.ooOO===#.#O# OO X& X# XX-  OO#.OOO OO ",
"XX XoX&%&oX .   XXX O   .#.XX&&X.+ XXOO=#OO=@O X  .XX.+=#. XX-  XXX# O.@OO X  X&%o  X.XX ##.   XOO#O+,,OOO,,@  X ..&;% O#XX O &;",
"# X oOX#.#OO# XXX O .-#O@O#X X -X  #OOO XOO XX XXoo . XXoXX . XXX  .X o.o  XXo X&2& X#XX-OO#   .XXo XX&XoOO= .o O  &X-. X>%-   O",
" ##O#O+@@O Xo   OO  . OO# X X  X XX X  Xoo X&o.OXoo X%&X..X X#X #+Oo X.o. X&%-O@= OO.XX :X XX O#  .  X&XoX%&>%-O   #O:X X X  O#=",
"- O  o#O#   .   XXX ##XXoXX O+# #O# . OO#. # X-O@@@OO O=@  . X .  OO=O=##XX #.X +@OXooOO .XXoX&% O X O#X%&- ##    .OO . #+#.oX>%",
"     .X&%o X-o X&;XX#   . O OO@#O O.#    X  # .&X.#O+,@# X oX& ##  # O. X #@ O .XX&X.#=+O.XO#OXo-   . ##==<=+O.oOO#O+@# OO X-X X",
"#  O+@O ..  ..OOOO#.XoOO  .O . XXX .   XX- X o X.XX&Xo XX O X.# &&oXXo.    X.O .&XXOX.oXX& .#O@@  OO#XX.@@#  XX%X O#XXo  X XX +<",
" XXo   O # O # O++#. XXo Xo O#   OO#XXo#O  #O#O=@O   .X>%X O+#.X O  XX%X.OO# XX OO=O# .XXoX.  O .o X&X  .    #O X-    .   OO#OO#",
"o  . XXo.X>%-XXo   O  o.O X2&XoOO#XXX .O X%  O.#X XOXX&X.X OO &oO@OOO &2% .#XX.O=O=OO X#OOX-o    .XX&   -o  X .+O   OO#XX O=O &%",
".  o&&  .X$.-X&ooOO X  .o# XoXo&&%&X.O#   .XXo.       O+@@O X  o2oOO=*#:XXoo#O XXo XX&o # &2-    XX   -XXooXXoX X.o      .  XXX.",
" >%o O  & O@  .#.    X&%-O@@O oX&&X.    O##. .X OO=OOO =O#   O@= X&%& O<@O#.OO# XooX X.%>XO#o%&XoX:&X&X#O.- O#O   .XXoX . X&X =@",
"X# #O@OOO#OO#  O# X X  # XXo.OO=#O ##     X X.%X&Xo   .    OO#O+@OXooO=O. O# XXX XX .= XX#=O..  ..#O=+<. XXX XOOO X  . XoX X X X",
"O+=#.     oX O.&%o XXX  #  .OO=O++< X&Xo OO#O .o  .X .# XXo  XXoX  # O X&&;%o   O#OO#=O+=#  =@= ..#=@+#.OO# X&;;;%-OO#OO#  OO   ",
"# O .o  XXoX .O ..O OXX- O##X   OO#    .  OO=O=#= .X .X&;%-   XoX   : XXo. ..OO=O#OO#  O OO .o $ :  .  OO=O=OO  O#       .X .#OO",
"o  XX-   XX #X O@# ##=  X&&oXX&Xo  OO=O# XXoXXoX   O .&>XoXoX  #OO+O  # ##,OX;%&Xo XXoX&2X XX-X:o: X- O#  XXXO@,,@# XXo  OO#. XX",
"XXo#O   O X.  o.XXoOO=##XXX.. XX-    XXoXXo.  ..XXoX   $  #.  OO#XX&%%X# .XX Xo&X%XX .$X%o OO.X #   ..  XXX   .    XXoX .  . XX ",
"OXo O#  #@@.XX.XX&2& . X +O..O# -&;%o  . O##O##XXX-X .+@##XXX.#      X&XX &oO@##O#   X#@<@  o.OO#XO##X  XX.O=O#      .. .  .  OO",
"OO#.X&&o.OOOO .-#O  XoX OO+O X .# Xo-  XO .&&&o.#+< X-O+=# Xo- XX +,,=#.:#O.&>o O=OO X O@#XX% X o. X&2o #O  XXo    O ..O#OO#OO# ",
" OO#   .X  OO+O O###O#OO# O .XO   =@   XXX   O#  .##O   OO=@@    . XXX# . O=OO Xo  OOO . X  #X O# X O . OO# XX-XXo X:o:         ",
" XXoO#OX.X&%oOO#XXo.OO &%&XX OOO .OO#OOO OO=+OX&&ooOO#   XX O &X.#  XX # X-O#=##.  XX O#  OO=#O X  O+@#X&%o $X%&X-  ##  XX&XoXXo",
"   . X X#XX-X&%&>XX#X&&&&;%. .oO+@#    OO#X&%X OO#X&%&&;%X .  Xo%XoOO= XX.   X .#XXX XX&X O=O#XX-OO#     X&% O O X& O@ XX   .  .",
"X  .o# Xo$OXOXoo##   X   .X   .    XX&Xo   Xo.+@O X>1%XXo.O# O@@# . OOO O## OO#.   OOO   . XXo#O     XXXO# &oO@=O &%-     # .X o",
"&oX .  X.$ - O@@+@# O@@=@= XO .o XXX  Xo&XX#  XXX O@@@=,OXo   O O. &;% +@#  X .# O .oOO= .o  .O X%&Xo XXoO*O:.     .:X .OXo&XoXX",
"O# X-X .X$ oX.O# X&;;X.O .X. XX%XXX .O X   O .X OO=+,OXX #X&;%&XoXX&X-.      X&%oXXoXXo  Xo O# XX-  .  ## : XX%&X +@  Xo O#   O=",
"=OO .O .-# O.        ..  O## #O#X X.-X oO.=OO OO &%o   .O X;%-  ..O+,<#  XXoOOO..  ..Xo&   &%o #+<=O#  .XX X#XooO#O X  X.OO+O. .",
"o O##o . O OX#    O@,@ X .X%oOO=O  XoX.# .  OO XX ..X O@# #+@# Xo .=O#     . O##X  XOO#XX.OO..X .#   OO#.#+<=@@@ .X XX ## XXoX&2",
"oo   X X &X.   X&;%-  XX-  ..  X XO.OO#=O &%o  X  #X  .  O++ o& .#.   X&% O#    . O#  XO.. O@#  .       XOO X  .X OOOO .o  Xo O.",
"#.   OO.>&. .&X&>XX   #+<OO # XXoOO@+O.o   XooOO#  .  X XXo  O# XXX%oXXX..    OO#OO#XXoO# X-  OO#     XX-X&&&oX OO# OOO . O@O#O=",
"O#   OOO#O . X&X @X.o OO# Xoo  O O.#XXo. O#OX. OO=O#  . X&2 +OOXXo .. O=@#     XXo X X#.## XoXXo      #O.XXOO  XX%&XoX .#  OO#.O",
"     X O+=#OO+O@# -&oo  X  #. OO X%XXO# &%XO# XoXXo OO# #O.ooX O@@+@#OO#  X&%o   XXX  X. OO &&o. XX&XoO X&. =O X&ooX&;%-  XXX X "};
